<?xml version="1.0" encoding="iso-8859-1"?>
<!-- Generator: Adobe Illustrator 19.0.0, SVG Export Plug-In . SVG Version: 6.00 Build 0)  -->
<svg version="1.1" id="Capa_1" xmlns="http://www.w3.org/2000/svg" xmlns:xlink="http://www.w3.org/1999/xlink" x="0px" y="0px"
	 viewBox="0 0 390.4 390.4" style="enable-background:new 0 0 390.4 390.4;" xml:space="preserve">
<path style="fill:#ACD3F0;" d="M150,177.2l-52.8,18l52.8,18c4.8,1.6,8,6.4,7.2,11.6L146.4,280l41.6-36.4c2-2,4.4-3.2,7.2-3.2
	s5.6,1.2,7.2,3.2L244,280l-10.8-55.2c-1.2-5.2,2-10.4,7.2-11.6l52.8-18l-52.8-18c-4.8-1.6-8-6.4-7.2-11.6l10.8-55.2l-41.6,36.4
	c-2,2-4.4,3.2-7.2,3.2s-5.6-1.2-7.2-3.2l-41.6-36.4l10.8,55.2C158,170.8,154.8,175.6,150,177.2z M184.8,10.4
	c0-5.6,4.4-10.4,10.4-10.4c5.6,0,10.4,4.4,10.4,10.4v28.8l21.2-18.4c4.4-3.6,10.8-3.2,14.4,0.8c3.6,4.4,3.2,10.8-0.8,14.4L206,66
	v51.2l45.6-39.6c3.6-3.2,8.8-3.2,12.4-0.8c4.4,2,6.8,6.4,6,11.2l-12.4,59.2l44.4-25.6l8.8-44.8c1.2-5.6,6.4-9.2,12-8s9.2,6.4,8,12
	l-5.6,27.6L350,94c4.8-2.8,11.2-1.2,14,3.6s1.2,11.2-3.6,14L335.6,126l26.4,9.2c5.2,2,8,7.6,6.4,12.8c-2,5.2-7.6,8-12.8,6.4
	l-43.2-14.8L268,165.2l57.2,19.6c4.4,1.6,7.2,6,6.8,10.8c0.4,4.8-2.4,9.2-6.8,10.8L268,226l44.4,25.6l43.2-14.8
	c5.2-2,11.2,1.2,12.8,6.4c2,5.2-1.2,11.2-6.4,12.8l-26.4,9.2l24.8,14.4c4.8,2.8,6.4,9.2,3.6,14s-9.2,6.4-14,3.6l-24.8-14.4l5.6,27.6
	c1.2,5.6-2.4,10.8-8,12s-10.8-2.4-12-8l-8.8-44.8l-44.4-26.4l11.6,59.2c0.8,4.8-1.6,9.6-6,11.2c-3.6,2.8-8.8,2.4-12.4-0.8
	l-45.6-39.6v51.2l34.4,30c4.4,3.6,4.8,10,0.8,14.4c-3.6,4.4-10,4.8-14.4,0.8l-21.2-18.4V380c0,5.6-4.4,10.4-10.4,10.4
	c-5.6,0-10.4-4.4-10.4-10.4v-28.8l-21.2,18.4c-4.4,3.6-10.8,3.2-14.4-0.8c-3.6-4.4-3.2-10.8,0.8-14.4l34.4-30v-51.2L138,312.8
	c-3.6,3.2-8.8,3.2-12.4,0.8c-4.4-2-6.8-6.4-6-11.2l13.2-59.2l-44.4,25.6l-8.8,44.8c-1.2,5.6-6.4,9.2-12,8s-9.2-6.4-8-12l5.6-27.6
	l-24.8,14.4c-4.8,2.8-11.2,1.2-14-3.6c-2.8-4.8-1.2-11.2,3.6-14l24.8-14.4l-26.4-9.2c-5.2-2-8-7.6-6.4-12.8c2-5.2,7.6-8,12.8-6.4
	L78,250.8l44.4-25.6l-57.2-19.6c-4.4-1.6-7.2-6-6.8-10.8c-0.4-4.8,2.4-9.2,6.8-10.8l57.2-19.6L78,138.8l-43.2,14.8
	c-5.2,2-11.2-1.2-12.8-6.4c-2-5.2,1.2-11.2,6.4-12.8l26.4-9.2L30,110.8c-4.8-2.8-6.4-9.2-3.6-14s9.2-6.4,14-3.6l24.8,14.4L60,80
	c-1.2-5.6,2.4-10.8,8-12s10.8,2.4,12,8l8.8,44.8l44,26.4L121.2,88c-0.8-4.8,1.6-9.6,6-11.2c3.6-2.8,8.8-2.4,12.4,0.8l45.6,39.6V66
	l-34.4-30c-4.4-3.6-4.8-10-0.8-14.4c3.6-4.4,10-4.8,14.4-0.8l21.2,18.4V10.4H184.8z"/>
<g>
	<path style="fill:#C7E2F5;" d="M157.2,224.8c1.2-5.2-2-10.4-7.2-11.6l-52.8-18l52.8-18c4.8-1.6,8-6.4,7.2-11.6l-10.8-55.2
		l41.6,36.4c2,2,4.4,3.2,7.2,3.2V0c-5.6,0-10.4,4.4-10.4,10.4v28.8l-21.2-18.4c-4.4-3.6-10.8-3.2-14.4,0.8C145.6,26,146,32.4,150,36
		l34.4,30v51.2l-45.6-39.6c-3.6-3.2-8.8-3.2-12.4-0.8c-4.4,2-6.8,6.4-6,11.2l12.4,59.2l-44.4-25.6l-8.8-44.8c-1.2-5.6-6.4-9.2-12-8
		s-9.2,6.4-8,12l5.2,27.6L40,94c-4.8-2.8-11.2-1.2-14,3.6s-1.2,11.2,3.6,14L54.4,126l-26,9.2c-5.2,2-8,7.6-6.4,12.8
		c2,5.2,7.6,8,12.8,6.4L78,139.6l44.4,25.6l-57.2,19.6c-4.4,1.6-7.2,6-6.8,10.8c-0.4,4.8,2.4,9.2,6.8,10.8l57.2,19.6L78,251.6
		l-43.2-14.8c-5.2-2-11.2,1.2-12.8,6.4c-2,5.2,1.2,11.2,6.4,12.8l26.4,9.2L30,279.6c-4.8,2.8-6.4,9.2-3.6,14s9.2,6.4,14,3.6
		l24.8-14.4l-5.6,27.6c-1.2,5.6,2.4,10.8,8,12s10.8-2.4,12-8l8.8-44.8l44.4-26.4l-11.6,59.2c-0.8,4.8,1.6,9.6,6,11.2
		c3.6,2.8,8.8,2.4,12.4-0.8l45.6-39.6v51.2l-34.4,30c-4.4,3.6-4.8,10-0.8,14.4c3.6,4.4,10,4.8,14.4,0.8l21.2-18.4V380
		c0,5.6,4.4,10.4,10.4,10.4v-150c-2.8,0-5.6,1.2-7.2,3.2L147.2,280L157.2,224.8z"/>
	<path style="fill:#C7E2F5;" d="M240.4,213.2l52.8-18l-52.8-18c-4.8-1.6-8-6.4-7.2-11.6l10.8-55.2l-41.6,36.4c-2,2-4.4,3.2-7.2,3.2
		s-5.6-1.2-7.2-3.2l-41.6-36.4l10.8,55.2c1.2,5.2-2,10.4-7.2,11.6l-52.8,18l52.8,18c4.8,1.6,8,6.4,7.2,11.6L146.4,280l41.6-36.4
		c2-2,4.4-3.2,7.2-3.2s5.6,1.2,7.2,3.2L244,280l-10.8-55.2C232.4,219.6,235.6,214.8,240.4,213.2z"/>
</g>
<g>
</g>
<g>
</g>
<g>
</g>
<g>
</g>
<g>
</g>
<g>
</g>
<g>
</g>
<g>
</g>
<g>
</g>
<g>
</g>
<g>
</g>
<g>
</g>
<g>
</g>
<g>
</g>
<g>
</g>
</svg>
